<?xml version="1.0" standalone="no"?>
<!DOCTYPE svg PUBLIC "-//W3C//DTD SVG 20010904//EN"
 "http://www.w3.org/TR/2001/REC-SVG-20010904/DTD/svg10.dtd">
<svg version="1.0" xmlns="http://www.w3.org/2000/svg"
 width="900.000000pt" height="903.000000pt" viewBox="0 0 900.000000 903.000000"
 preserveAspectRatio="xMidYMid meet">
<metadata>
Created by potrace 1.10, written by Peter Selinger 2001-2011
</metadata>
<g transform="translate(0.000000,903.000000) scale(0.100000,-0.100000)"
fill="#ed0707" stroke="none">
<path d="M4810 8483 c-8 -4 -65 -39 -127 -79 -61 -40 -129 -82 -150 -94 -37
-21 -122 -74 -219 -137 -27 -18 -61 -44 -77 -58 -15 -14 -33 -25 -39 -25 -7 0
-37 -17 -68 -39 -30 -21 -75 -49 -100 -63 -25 -13 -98 -59 -162 -101 -64 -42
-119 -77 -122 -77 -3 0 -27 -16 -53 -36 -26 -20 -58 -40 -70 -45 -13 -5 -72
-42 -131 -82 -60 -41 -120 -81 -134 -88 -69 -38 -104 -59 -238 -147 -80 -52
-156 -103 -170 -112 -14 -10 -34 -20 -45 -24 -11 -3 -51 -28 -90 -56 -38 -27
-84 -56 -101 -64 -16 -7 -42 -25 -57 -39 -15 -13 -42 -31 -60 -37 -17 -7 -43
-23 -57 -36 -14 -12 -47 -34 -75 -49 -27 -14 -77 -46 -110 -70 -33 -24 -87
-60 -120 -80 -33 -20 -80 -49 -105 -65 -25 -16 -54 -34 -65 -39 -24 -11 -175
-109 -224 -146 -19 -14 -40 -25 -48 -25 -7 0 -21 -8 -31 -17 -21 -22 -73 -56
-169 -113 -40 -23 -73 -46 -73 -50 0 -17 82 -73 210 -144 25 -14 70 -43 100
-65 30 -22 92 -61 136 -86 45 -25 99 -59 119 -75 21 -17 42 -30 48 -30 6 0 25
-12 44 -26 55 -42 180 -124 189 -124 4 0 24 -10 43 -23 20 -13 71 -46 114 -73
43 -27 106 -70 140 -95 34 -25 74 -52 88 -60 88 -47 121 -67 222 -131 61 -39
126 -83 142 -97 17 -14 48 -35 70 -45 57 -27 51 -23 191 -117 71 -47 156 -100
189 -119 33 -18 69 -41 80 -50 11 -9 43 -29 70 -45 28 -16 68 -43 90 -61 22
-18 63 -44 90 -58 28 -15 82 -47 120 -72 39 -25 92 -60 120 -78 29 -18 52 -41
56 -56 4 -14 7 -527 8 -1140 1 -856 -2 -1119 -11 -1128 -9 -9 -155 -12 -594
-12 -467 0 -584 -3 -592 -13 -8 -9 -12 -136 -14 -385 -3 -318 -5 -374 -18
-382 -9 -6 -272 -10 -662 -10 -635 0 -648 0 -668 -20 -20 -20 -20 -33 -20
-566 0 -357 4 -552 10 -565 11 -19 54 -19 2900 -19 l2890 0 15 24 c14 20 15
90 13 570 -3 529 -4 548 -22 562 -17 12 -125 14 -673 14 -635 0 -653 1 -663
19 -6 13 -10 150 -10 378 0 275 -3 363 -13 377 -12 16 -53 17 -591 16 -421 0
-582 3 -592 11 -12 10 -14 162 -14 933 0 576 -4 934 -10 956 -6 22 -10 779
-10 2122 0 1640 -3 2088 -13 2087 -6 0 -19 -3 -27 -6z"/>
</g>
</svg>
